<?xml version="1.0" encoding="UTF-8" standalone="no"?>
<!-- Created with Inkscape (http://www.inkscape.org/) -->

<svg
   xmlns:dc="http://purl.org/dc/elements/1.1/"
   xmlns:cc="http://creativecommons.org/ns#"
   xmlns:rdf="http://www.w3.org/1999/02/22-rdf-syntax-ns#"
   xmlns:svg="http://www.w3.org/2000/svg"
   xmlns="http://www.w3.org/2000/svg"
   xmlns:xlink="http://www.w3.org/1999/xlink"
   xmlns:sodipodi="http://sodipodi.sourceforge.net/DTD/sodipodi-0.dtd"
   xmlns:inkscape="http://www.inkscape.org/namespaces/inkscape"
   width="200"
   height="176"
   id="svg3230"
   version="1.1"
   inkscape:version="0.48.4 r9939"
   sodipodi:docname="Nuevo documento 4">
  <defs
     id="defs3232">
    <linearGradient
       inkscape:collect="always"
       xlink:href="#linearGradient3878"
       id="linearGradient3856"
       gradientUnits="userSpaceOnUse"
       x1="-1552.8065"
       y1="-253.66405"
       x2="-1581.0908"
       y2="-268.51328" />
    <linearGradient
       id="linearGradient3878">
      <stop
         style="stop-color:#99979a;stop-opacity:1"
         offset="0"
         id="stop3880" />
      <stop
         style="stop-color:#e4e4e4;stop-opacity:1"
         offset="1"
         id="stop3882" />
    </linearGradient>
    <linearGradient
       inkscape:collect="always"
       xlink:href="#linearGradient3878"
       id="linearGradient3858"
       gradientUnits="userSpaceOnUse"
       gradientTransform="translate(149.50258,-291.93409)"
       x1="-1695.036"
       y1="57.361927"
       x2="-1880.9041"
       y2="-55.775158" />
    <linearGradient
       id="linearGradient3195">
      <stop
         style="stop-color:#99979a;stop-opacity:1"
         offset="0"
         id="stop3197" />
      <stop
         style="stop-color:#e4e4e4;stop-opacity:1"
         offset="1"
         id="stop3199" />
    </linearGradient>
    <linearGradient
       inkscape:collect="always"
       xlink:href="#linearGradient3824"
       id="linearGradient3860"
       gradientUnits="userSpaceOnUse"
       x1="-1593.5"
       y1="-295.13782"
       x2="-1574.5"
       y2="-282.13782" />
    <linearGradient
       inkscape:collect="always"
       id="linearGradient3824">
      <stop
         style="stop-color:#a1817f;stop-opacity:1"
         offset="0"
         id="stop3826" />
      <stop
         style="stop-color:#d0c9cb;stop-opacity:1"
         offset="1"
         id="stop3828" />
    </linearGradient>
    <linearGradient
       y2="-282.13782"
       x2="-1574.5"
       y1="-295.13782"
       x1="-1593.5"
       gradientUnits="userSpaceOnUse"
       id="linearGradient3228"
       xlink:href="#linearGradient3824"
       inkscape:collect="always" />
  </defs>
  <sodipodi:namedview
     id="base"
     pagecolor="#ffffff"
     bordercolor="#666666"
     borderopacity="1.0"
     inkscape:pageopacity="0.0"
     inkscape:pageshadow="2"
     inkscape:zoom="0.98994949"
     inkscape:cx="273.87706"
     inkscape:cy="159.37343"
     inkscape:document-units="px"
     inkscape:current-layer="layer1"
     showgrid="false"
     inkscape:window-width="1317"
     inkscape:window-height="744"
     inkscape:window-x="49"
     inkscape:window-y="24"
     inkscape:window-maximized="1" />
  <metadata
     id="metadata3235">
    <rdf:RDF>
      <cc:Work
         rdf:about="">
        <dc:format>image/svg+xml</dc:format>
        <dc:type
           rdf:resource="http://purl.org/dc/dcmitype/StillImage" />
        <dc:title></dc:title>
      </cc:Work>
    </rdf:RDF>
  </metadata>
  <g
     inkscape:label="Capa 1"
     inkscape:groupmode="layer"
     id="layer1"
     transform="translate(0,-876.36217)">
    <g
       id="g3832"
       transform="matrix(0.69851808,0,0,0.69959101,1262.5597,1142.0259)"
       inkscape:export-filename="/var/www/construction/images/logo.png"
       inkscape:export-xdpi="90"
       inkscape:export-ydpi="90">
      <path
         sodipodi:nodetypes="csccssccc"
         inkscape:connector-curvature="0"
         id="path3820"
         d="m -1757.2831,-237.0719 c 21.0618,-24.61302 128.7872,7.62263 162.8975,12.8431 17.1985,2.63218 57.4103,6.8831 61.0311,-7.12882 l -23.5988,-20.71179 c -5.9739,-20.6703 -24.3533,-35.86366 -49.161,-48.76125 -2.607,-1.3554 -9.3951,4.07455 -11.9557,2.44483 -125.1991,-79.68535 -164.0433,-64.21908 -174.9274,-72.2575 1.4301,26.59466 10.942,42.3196 20.1229,55.66286 13.1323,22.17169 20.4702,40.01244 15.5914,77.90857 z"
         style="fill:url(#linearGradient3856);fill-opacity:1;stroke:none" />
      <g
         transform="translate(148.49242,-290.92393)"
         style="fill:#b90101;fill-opacity:1"
         id="g3812">
        <path
           inkscape:connector-curvature="0"
           style="fill:#b90101;fill-opacity:1;stroke:none"
           d="M -1938,90.53125 -1931.5312,97 c 0,0 -0.2216,22.92866 0,23.3125 l 33.5,0 c 1.9383,-0.45524 3.8264,-1.14192 4.9374,-4.90625 l 0,-7.90625 c -0.6728,-1.7396 -2.2327,-1.84924 -3.7187,-2.125 1.7703,-0.61674 3.5779,-1.16167 3.875,-3.90625 l 0,-5.75 c -0.3701,-3.279014 -2.2956,-4.766621 -5.1875,-5.1875 l -39.875,0 z m 14.0312,7.8125 19.9688,0 c 1.3832,2.28106 0.7667,2.6578 0,3.78125 l -14.5938,0 0,6.9375 14.4063,0 c 0.9907,0.86643 1.5113,1.91404 0,3.78125 l -19.7813,-0.1875 0,-14.3125 z"
           id="path3009" />
        <path
           style="fill:#b90101;fill-opacity:1;stroke:none"
           d="m -1889.8214,90.844323 0,29.464287 31.1607,0 c 3.5601,-0.79154 6.3208,-2.83951 8.2143,-6.25 l 0,-23.214287 -8.3929,0 0,17.232147 c -0.4594,3.27233 -1.9367,4.10177 -3.5714,4.55357 l -19.5536,0 0,-22.14286 z"
           id="path3011"
           inkscape:connector-curvature="0"
           sodipodi:nodetypes="ccccccccccc" />
        <path
           style="fill:#b90101;fill-opacity:1;stroke:none"
           d="m -1847.569,120.37019 0,-29.673232 8.8388,0 c 6.945,2.65294 14.0004,5.94932 22.3497,16.793782 l 0,-16.541244 8.0812,0 0,29.294424 -8.7126,0 -22.2233,-18.68782 0,18.81409 z"
           id="path3013"
           inkscape:connector-curvature="0"
           sodipodi:nodetypes="ccccccccccc" />
        <path
           style="fill:#b90101;fill-opacity:1;stroke:none"
           d="m -1805.5214,119.86511 8.3337,0 0,-10.85914 18.5616,0 c 1.9008,0.38979 3.7881,0.79973 4.2932,3.283 l 0,7.57614 7.9549,0 0,-11.36421 c -0.6463,-2.83733 -1.855,-5.53403 -7.1973,-7.19734 l 5.9986,-10.390001 -8.1452,0 -6.2414,10.810411 -15.6032,0 0,-11.027012 -8.0812,0 z"
           id="path3015"
           inkscape:connector-curvature="0"
           sodipodi:nodetypes="cccccccccccccccc" />
        <path
           style="fill:#b90101;fill-opacity:1;stroke:none"
           d="m -1724.5829,120.24392 0,-7.82868 -27.7792,0 0,-4.04061 15.9099,0 0,-6.56599 -16.2887,0 0,-3.788076 28.663,0 0,-7.576144 -33.7138,0 c -10.6424,2.603578 -7.4457,13.67251 0,14.39467 -10.074,6.2283 -5.3759,13.72084 0,15.40483 z"
           id="path3017"
           inkscape:connector-curvature="0"
           sodipodi:nodetypes="cccccccccccccc" />
        <path
           style="fill:#b90101;fill-opacity:1;stroke:none"
           d="m -1712.8399,119.61257 -7.7024,0 0,-29.294419 38.8908,0 0,13.637059 c -1.0878,4.84687 -4.4931,7.37617 -8.9019,8.90197 l 6.7554,6.75539 -10.4804,0 -6.566,-6.56599 -9.7227,0 0,-7.3236 18.0565,0 c 2.0418,0.44241 2.2154,-0.98337 2.3991,-2.39912 l 0,-5.682103 -22.7284,0 z"
           id="path3019"
           inkscape:connector-curvature="0"
           sodipodi:nodetypes="cccccccccccccccc" />
      </g>
      <path
         sodipodi:nodetypes="czscssc"
         inkscape:connector-curvature="0"
         id="path3021"
         d="m -1777.2842,-209.09644 c -0.1642,-0.0226 10.8012,-21.30002 46.7614,-19.29315 35.9602,2.00687 43.7447,13.49877 72.9769,11.30027 24.7332,-1.86014 35.3944,-10.59447 36.0778,-9.93733 0,0 -13.3824,18.57746 -41.4761,18.84422 -22.5284,0.21392 -58.8065,-11.65114 -75.5644,-11.81154 -22.2264,-0.21273 -38.7756,10.89753 -38.7756,10.89753 z"
         style="fill:#3fc9ff;fill-opacity:1;stroke:none" />
      <path
         inkscape:connector-curvature="0"
         id="path3804"
         d="m -1607.6073,-287.42839 1.2375,-12.19759 -11.8441,4.59619 z"
         style="fill:#cfcfcf;fill-opacity:1;stroke:none" />
      <path
         sodipodi:nodetypes="cscccccc"
         inkscape:connector-curvature="0"
         id="path3820-4"
         d="m -1757.2831,-237.07187 c 21.0618,-24.61302 128.7872,7.62264 162.8975,12.8431 17.1985,2.63218 57.4103,6.88311 61.0311,-7.12881 l -23.5988,-20.7118 c 0,0 -42.7087,-36.96141 -61.1167,-46.31641 -125.1991,-79.68536 -164.0433,-64.21909 -174.9274,-72.25751 1.4301,26.59466 10.942,42.3196 20.1229,55.66286 13.1323,22.17169 20.4702,40.01244 15.5914,77.90857 z"
         style="opacity:0.98999999;fill:url(#linearGradient3858);fill-opacity:1;stroke:none" />
      <path
         sodipodi:nodetypes="cccsssccc"
         inkscape:connector-curvature="0"
         id="path3820-6"
         d="m -1757.2831,-237.07187 c 21.0618,-24.61302 128.7872,7.62264 162.8975,12.8431 43.5809,4.44478 51.1375,7.69485 60.4972,-6.90134 -6.2918,-0.0604 -124.3257,-28.21301 -132.6689,-30.89019 -59.4005,-19.06064 -54.6335,-31.04487 -56.0719,-67.5715 -0.6317,-16.04449 -5.2621,-23.33545 -11.8693,-25.43441 -40.4803,-12.85976 -51.9052,-10.7473 -58.4989,-15.61709 1.4301,26.59466 10.942,42.3196 20.1229,55.66286 13.1323,22.17169 20.4702,40.01244 15.5914,77.90857 z"
         style="opacity:0.89300411;fill:#b90101;fill-opacity:1;stroke:none" />
      <path
         sodipodi:nodetypes="czscssc"
         inkscape:connector-curvature="0"
         id="path3021-4"
         d="m -1763.2265,-228.34861 c -0.1355,-0.0187 6.9776,-14.36224 36.6441,-12.7066 29.6665,1.65563 35.9904,11.95763 60.1064,10.14391 20.4045,-1.53458 31.2311,-12.77152 31.7949,-12.2294 0,0 -12.1743,20.28145 -35.3511,20.50153 -18.5855,0.17648 -52.7999,-12.53163 -66.6248,-12.66395 -18.3364,-0.1755 -26.5695,6.95451 -26.5695,6.95451 z"
         style="fill:#060480;fill-opacity:1;stroke:none" />
      <path
         id="path3004"
         d="m -1781.2188,-166.1875 -3.4062,21 10.875,-0.625 c 4.1055,-2.17534 7.3251,-9.84285 4.7188,-18.84375 -0.7118,-2.01033 -9.0561,-1.29901 -12.1876,-1.53125 z m 7.9063,3.8125 c 0.2801,1.1662 0.4674,2.30807 0.5313,3.4375 0.064,1.12943 0.02,2.25523 -0.1563,3.34375 -0.1715,1.05719 -0.4543,2.079 -0.875,3.09375 -0.4207,1.01475 -0.9955,2.03147 -1.6875,3 l -3.875,-0.0937 c 0.3571,-0.49107 2.0625,-12.6875 2.0625,-12.6875 l 4,-0.0937 z"
         style="opacity:0.98999999;fill:#000085;fill-opacity:1;stroke:none"
         inkscape:connector-curvature="0" />
      <path
         sodipodi:nodetypes="ccccccccc"
         inkscape:connector-curvature="0"
         id="path3787"
         d="m -1748.3125,-141.45032 5.1875,0.1875 10.3125,-20.0625 -5.6875,0.125 -2.375,6.8125 -2.6875,-7.0625 -4.9375,0.1875 3.4375,10.8125 z"
         style="fill:#000085;fill-opacity:1;stroke:none" />
      <path
         sodipodi:nodetypes="ccccccccccc"
         inkscape:connector-curvature="0"
         id="path3789"
         d="m -1715.1317,-145.47671 4.773,0.0442 2.3423,-12.86051 c 1.0274,-0.0468 2.6105,-0.1491 2.5632,-0.0884 l -1.812,13.08148 4.9498,0.0442 2.0771,-15.07021 c -2.9985,-1.50275 -5.5446,-1.46932 -7.6014,0.0884 l 0.2652,-1.10485 -4.6404,-1e-5 z"
         style="fill:#000085;fill-opacity:1;stroke:none" />
      <path
         id="path3791"
         d="m -1676.4688,-162 -0.25,3.71875 5.375,0.15625 -0.094,1.6875 -5.1875,0 c -4.3313,2.56701 -4.1655,6.45562 -3.4688,9.1875 l 1.7813,1.6875 9.7187,0.25 2.375,-14.03125 c -0.4555,-1.11466 -0.9527,-2.21502 -2.5624,-2.40625 l -7.6876,-0.25 z m 1.2813,8.78125 2.8437,0.0625 -0.062,3.9375 -4,0.0625 c -0.3609,-1.19249 -0.6174,-2.40751 1.2187,-4.0625 z"
         style="opacity:0.87000008;fill:#000085;fill-opacity:1;stroke:none"
         inkscape:connector-curvature="0" />
      <path
         sodipodi:nodetypes="cccccccccccccccc"
         inkscape:connector-curvature="0"
         id="path3796"
         d="m -1646.5865,-145.5651 4.331,0.0884 2.1213,-12.02081 c 1.8883,-1.22679 2.4103,-0.40402 2.9168,0.44194 l -1.8561,11.57887 4.0658,0.0884 1.7678,-11.84404 c 0.8761,-0.32949 1.4568,-1.56075 3.4472,0.17678 l -2.475,11.49048 4.9499,1e-5 2.0328,-14.23053 c -0.3333,-2.24774 -7.0373,-2.36082 -7.1594,-0.26516 -0.6668,-2.13798 -6.3159,-2.19209 -7.3362,-0.61872 l -0.2652,-1.67938 -4.331,-0.0884 z"
         style="fill:#000085;fill-opacity:1;stroke:none" />
      <path
         sodipodi:nodetypes="cccccccccc"
         inkscape:connector-curvature="0"
         id="path3798"
         d="m -1605.6627,-145.47671 5.2149,0 2.3864,-15.73312 -5.1264,-0.35356 z m 3.182,-20.85964 c 0.1768,0.79549 0.1767,4.06586 0.1767,4.06586 l 4.9498,-0.0884 -0.1768,-3.97748 z"
         style="fill:#000085;fill-opacity:1;stroke:none" />
      <path
         sodipodi:nodetypes="ccsccccccc"
         inkscape:connector-curvature="0"
         id="path3800"
         d="m -1568.5397,-145.29993 -8.3084,-0.35355 c -0.2516,-0.5968 -1.9188,-0.78486 -1.8999,-1.36873 0.2233,-6.91911 1.2241,-13.69357 5.0819,-14.18762 l 7.3362,-0.0884 -0.6187,3.18198 -4.6846,-0.0884 c -3.0783,5.0818 -2.2354,6.77271 -2.3865,8.92723 l 5.3917,-1e-5 z"
         style="fill:#000085;fill-opacity:1;stroke:none" />
      <path
         sodipodi:nodetypes="ccczccccczcc"
         inkscape:connector-curvature="0"
         id="path3802"
         d="m -1546.3984,-149.49838 0.221,3.93328 8.5737,0 c 2.7086,-1.0552 2.6878,-4.25574 2.4472,-6.26108 -0.2406,-2.00534 -2.9977,-3.37461 -5.1872,-4.69907 -0.7875,-0.70622 -0.196,-1.25922 0,-1.85616 l 6.0104,-0.17678 0.1325,-2.74003 c -3.3902,0.33203 -8.0396,0.15441 -8.0396,0.15441 -2.8279,0.13153 -2.8312,6.12876 -1.763,7.2434 1.0683,1.11464 6.7485,1.12424 4.7645,4.49042 z"
         style="fill:#000085;fill-opacity:1;stroke:none" />
      <path
         sodipodi:nodetypes="ccc"
         inkscape:connector-curvature="0"
         id="path3808"
         d="m -1582.6817,-286.3435 c -5.2117,-16.52695 -10.6876,-9.23799 -13.7886,-7.6014 z"
         style="fill:url(#linearGradient3228);fill-opacity:1;stroke:none" />
    </g>
  </g>
</svg>
